<mxfile host="app.diagrams.net" agent="Mozilla/5.0 (Windows NT 10.0; Win64; x64) AppleWebKit/537.36 (KHTML, like Gecko) Chrome/141.0.0.0 Safari/537.36" version="28.2.7">
  <diagram name="Trang-1" id="e44bJ1GHGyS1KuDXvB4A">
    <mxGraphModel dx="2084" dy="1054" grid="1" gridSize="10" guides="1" tooltips="1" connect="1" arrows="1" fold="1" page="1" pageScale="1" pageWidth="827" pageHeight="1169" math="0" shadow="0">
      <root>
        <mxCell id="0" />
        <mxCell id="1" parent="0" />
        <mxCell id="of3fLFiGDkSLjefyCuvY-2" style="edgeStyle=orthogonalEdgeStyle;rounded=0;orthogonalLoop=1;jettySize=auto;html=1;" edge="1" parent="1" source="of3fLFiGDkSLjefyCuvY-1">
          <mxGeometry relative="1" as="geometry">
            <mxPoint x="131" y="180" as="targetPoint" />
          </mxGeometry>
        </mxCell>
        <mxCell id="of3fLFiGDkSLjefyCuvY-1" value="bắt đầu" style="ellipse;whiteSpace=wrap;html=1;" vertex="1" parent="1">
          <mxGeometry x="71" y="60" width="120" height="80" as="geometry" />
        </mxCell>
        <mxCell id="of3fLFiGDkSLjefyCuvY-4" style="edgeStyle=orthogonalEdgeStyle;rounded=0;orthogonalLoop=1;jettySize=auto;html=1;" edge="1" parent="1" source="of3fLFiGDkSLjefyCuvY-3">
          <mxGeometry relative="1" as="geometry">
            <mxPoint x="131" y="290" as="targetPoint" />
          </mxGeometry>
        </mxCell>
        <mxCell id="of3fLFiGDkSLjefyCuvY-3" value="nhập a,b,c" style="shape=parallelogram;perimeter=parallelogramPerimeter;whiteSpace=wrap;html=1;fixedSize=1;" vertex="1" parent="1">
          <mxGeometry x="71" y="180" width="120" height="60" as="geometry" />
        </mxCell>
        <mxCell id="of3fLFiGDkSLjefyCuvY-8" style="edgeStyle=orthogonalEdgeStyle;rounded=0;orthogonalLoop=1;jettySize=auto;html=1;" edge="1" parent="1" source="of3fLFiGDkSLjefyCuvY-5">
          <mxGeometry relative="1" as="geometry">
            <mxPoint x="243" y="330" as="targetPoint" />
          </mxGeometry>
        </mxCell>
        <mxCell id="of3fLFiGDkSLjefyCuvY-13" value="Y" style="edgeLabel;html=1;align=center;verticalAlign=middle;resizable=0;points=[];" vertex="1" connectable="0" parent="of3fLFiGDkSLjefyCuvY-8">
          <mxGeometry x="-0.1385" y="4" relative="1" as="geometry">
            <mxPoint as="offset" />
          </mxGeometry>
        </mxCell>
        <mxCell id="of3fLFiGDkSLjefyCuvY-14" style="edgeStyle=orthogonalEdgeStyle;rounded=0;orthogonalLoop=1;jettySize=auto;html=1;" edge="1" parent="1" source="of3fLFiGDkSLjefyCuvY-5">
          <mxGeometry relative="1" as="geometry">
            <mxPoint x="131" y="430" as="targetPoint" />
          </mxGeometry>
        </mxCell>
        <mxCell id="of3fLFiGDkSLjefyCuvY-17" value="N" style="edgeLabel;html=1;align=center;verticalAlign=middle;resizable=0;points=[];" vertex="1" connectable="0" parent="of3fLFiGDkSLjefyCuvY-14">
          <mxGeometry x="-0.3467" y="-2" relative="1" as="geometry">
            <mxPoint as="offset" />
          </mxGeometry>
        </mxCell>
        <mxCell id="of3fLFiGDkSLjefyCuvY-5" value="a=0" style="rhombus;whiteSpace=wrap;html=1;" vertex="1" parent="1">
          <mxGeometry x="71" y="290" width="120" height="80" as="geometry" />
        </mxCell>
        <mxCell id="of3fLFiGDkSLjefyCuvY-11" style="edgeStyle=orthogonalEdgeStyle;rounded=0;orthogonalLoop=1;jettySize=auto;html=1;" edge="1" parent="1" source="of3fLFiGDkSLjefyCuvY-10">
          <mxGeometry relative="1" as="geometry">
            <mxPoint x="403" y="330" as="targetPoint" />
          </mxGeometry>
        </mxCell>
        <mxCell id="of3fLFiGDkSLjefyCuvY-10" value="giải pt bx+c=0" style="rounded=0;whiteSpace=wrap;html=1;" vertex="1" parent="1">
          <mxGeometry x="243" y="300" width="120" height="60" as="geometry" />
        </mxCell>
        <mxCell id="of3fLFiGDkSLjefyCuvY-46" style="edgeStyle=orthogonalEdgeStyle;rounded=0;orthogonalLoop=1;jettySize=auto;html=1;" edge="1" parent="1" source="of3fLFiGDkSLjefyCuvY-12">
          <mxGeometry relative="1" as="geometry">
            <mxPoint x="750" y="550" as="targetPoint" />
          </mxGeometry>
        </mxCell>
        <mxCell id="of3fLFiGDkSLjefyCuvY-12" value="xuất &quot;x&quot;" style="shape=parallelogram;perimeter=parallelogramPerimeter;whiteSpace=wrap;html=1;fixedSize=1;" vertex="1" parent="1">
          <mxGeometry x="393" y="300" width="120" height="60" as="geometry" />
        </mxCell>
        <mxCell id="of3fLFiGDkSLjefyCuvY-22" style="edgeStyle=orthogonalEdgeStyle;rounded=0;orthogonalLoop=1;jettySize=auto;html=1;entryX=0.5;entryY=0;entryDx=0;entryDy=0;" edge="1" parent="1" source="of3fLFiGDkSLjefyCuvY-18" target="of3fLFiGDkSLjefyCuvY-23">
          <mxGeometry relative="1" as="geometry">
            <mxPoint x="131" y="540" as="targetPoint" />
          </mxGeometry>
        </mxCell>
        <mxCell id="of3fLFiGDkSLjefyCuvY-18" value="tính:" style="rounded=0;whiteSpace=wrap;html=1;align=left;" vertex="1" parent="1">
          <mxGeometry x="60" y="430" width="142" height="60" as="geometry" />
        </mxCell>
        <mxCell id="of3fLFiGDkSLjefyCuvY-20" value="&lt;span style=&quot;color: rgb(0, 0, 0); font-family: Arial, sans-serif; font-size: 16px; font-style: normal; font-variant-ligatures: normal; font-variant-caps: normal; font-weight: 400; letter-spacing: normal; orphans: 2; text-align: start; text-indent: 0px; text-transform: none; widows: 2; word-spacing: 0px; -webkit-text-stroke-width: 0px; white-space: pre-wrap; background-color: rgb(255, 255, 255); text-decoration-thickness: initial; text-decoration-style: initial; text-decoration-color: initial; display: inline !important; float: none;&quot;&gt;Δ = b² - 4ac&lt;/span&gt;" style="text;whiteSpace=wrap;html=1;" vertex="1" parent="1">
          <mxGeometry x="92" y="445" width="110" height="30" as="geometry" />
        </mxCell>
        <mxCell id="of3fLFiGDkSLjefyCuvY-25" style="edgeStyle=orthogonalEdgeStyle;rounded=0;orthogonalLoop=1;jettySize=auto;html=1;" edge="1" parent="1" source="of3fLFiGDkSLjefyCuvY-23">
          <mxGeometry relative="1" as="geometry">
            <mxPoint x="253" y="575" as="targetPoint" />
          </mxGeometry>
        </mxCell>
        <mxCell id="of3fLFiGDkSLjefyCuvY-26" value="Y" style="edgeLabel;html=1;align=center;verticalAlign=middle;resizable=0;points=[];" vertex="1" connectable="0" parent="of3fLFiGDkSLjefyCuvY-25">
          <mxGeometry x="-0.0703" y="2" relative="1" as="geometry">
            <mxPoint as="offset" />
          </mxGeometry>
        </mxCell>
        <mxCell id="of3fLFiGDkSLjefyCuvY-28" style="edgeStyle=orthogonalEdgeStyle;rounded=0;orthogonalLoop=1;jettySize=auto;html=1;" edge="1" parent="1" source="of3fLFiGDkSLjefyCuvY-23">
          <mxGeometry relative="1" as="geometry">
            <mxPoint x="131" y="670" as="targetPoint" />
          </mxGeometry>
        </mxCell>
        <mxCell id="of3fLFiGDkSLjefyCuvY-29" value="N" style="edgeLabel;html=1;align=center;verticalAlign=middle;resizable=0;points=[];" vertex="1" connectable="0" parent="of3fLFiGDkSLjefyCuvY-28">
          <mxGeometry x="-0.1162" y="-1" relative="1" as="geometry">
            <mxPoint as="offset" />
          </mxGeometry>
        </mxCell>
        <mxCell id="of3fLFiGDkSLjefyCuvY-23" value="Δ&amp;lt;0" style="rhombus;whiteSpace=wrap;html=1;" vertex="1" parent="1">
          <mxGeometry x="80.5" y="535" width="101" height="75" as="geometry" />
        </mxCell>
        <mxCell id="of3fLFiGDkSLjefyCuvY-47" style="edgeStyle=orthogonalEdgeStyle;rounded=0;orthogonalLoop=1;jettySize=auto;html=1;entryX=0;entryY=0.5;entryDx=0;entryDy=0;" edge="1" parent="1" source="of3fLFiGDkSLjefyCuvY-27" target="of3fLFiGDkSLjefyCuvY-45">
          <mxGeometry relative="1" as="geometry" />
        </mxCell>
        <mxCell id="of3fLFiGDkSLjefyCuvY-27" value="xuất &quot;vô nghiệm&quot;" style="shape=parallelogram;perimeter=parallelogramPerimeter;whiteSpace=wrap;html=1;fixedSize=1;" vertex="1" parent="1">
          <mxGeometry x="253" y="545" width="120" height="60" as="geometry" />
        </mxCell>
        <mxCell id="of3fLFiGDkSLjefyCuvY-31" style="edgeStyle=orthogonalEdgeStyle;rounded=0;orthogonalLoop=1;jettySize=auto;html=1;" edge="1" parent="1" source="of3fLFiGDkSLjefyCuvY-30">
          <mxGeometry relative="1" as="geometry">
            <mxPoint x="253" y="710" as="targetPoint" />
          </mxGeometry>
        </mxCell>
        <mxCell id="of3fLFiGDkSLjefyCuvY-32" value="Y" style="edgeLabel;html=1;align=center;verticalAlign=middle;resizable=0;points=[];" vertex="1" connectable="0" parent="of3fLFiGDkSLjefyCuvY-31">
          <mxGeometry x="-0.097" y="1" relative="1" as="geometry">
            <mxPoint as="offset" />
          </mxGeometry>
        </mxCell>
        <mxCell id="of3fLFiGDkSLjefyCuvY-36" style="edgeStyle=orthogonalEdgeStyle;rounded=0;orthogonalLoop=1;jettySize=auto;html=1;" edge="1" parent="1" source="of3fLFiGDkSLjefyCuvY-30">
          <mxGeometry relative="1" as="geometry">
            <mxPoint x="131" y="800" as="targetPoint" />
          </mxGeometry>
        </mxCell>
        <mxCell id="of3fLFiGDkSLjefyCuvY-37" value="N" style="edgeLabel;html=1;align=center;verticalAlign=middle;resizable=0;points=[];" vertex="1" connectable="0" parent="of3fLFiGDkSLjefyCuvY-36">
          <mxGeometry x="-0.1409" y="-2" relative="1" as="geometry">
            <mxPoint as="offset" />
          </mxGeometry>
        </mxCell>
        <mxCell id="of3fLFiGDkSLjefyCuvY-30" value="Δ=0" style="rhombus;whiteSpace=wrap;html=1;" vertex="1" parent="1">
          <mxGeometry x="80.5" y="670" width="101" height="80" as="geometry" />
        </mxCell>
        <mxCell id="of3fLFiGDkSLjefyCuvY-34" style="edgeStyle=orthogonalEdgeStyle;rounded=0;orthogonalLoop=1;jettySize=auto;html=1;" edge="1" parent="1" source="of3fLFiGDkSLjefyCuvY-33">
          <mxGeometry relative="1" as="geometry">
            <mxPoint x="413" y="710" as="targetPoint" />
          </mxGeometry>
        </mxCell>
        <mxCell id="of3fLFiGDkSLjefyCuvY-33" value="tính x = - b / (2a)" style="rounded=0;whiteSpace=wrap;html=1;" vertex="1" parent="1">
          <mxGeometry x="253" y="680" width="120" height="60" as="geometry" />
        </mxCell>
        <mxCell id="of3fLFiGDkSLjefyCuvY-48" style="edgeStyle=orthogonalEdgeStyle;rounded=0;orthogonalLoop=1;jettySize=auto;html=1;" edge="1" parent="1" source="of3fLFiGDkSLjefyCuvY-35" target="of3fLFiGDkSLjefyCuvY-45">
          <mxGeometry relative="1" as="geometry">
            <mxPoint x="750" y="650" as="targetPoint" />
          </mxGeometry>
        </mxCell>
        <mxCell id="of3fLFiGDkSLjefyCuvY-35" value="xuất x" style="shape=parallelogram;perimeter=parallelogramPerimeter;whiteSpace=wrap;html=1;fixedSize=1;" vertex="1" parent="1">
          <mxGeometry x="403" y="680" width="120" height="60" as="geometry" />
        </mxCell>
        <mxCell id="of3fLFiGDkSLjefyCuvY-39" style="edgeStyle=orthogonalEdgeStyle;rounded=0;orthogonalLoop=1;jettySize=auto;html=1;" edge="1" parent="1" source="of3fLFiGDkSLjefyCuvY-38">
          <mxGeometry relative="1" as="geometry">
            <mxPoint x="303" y="930" as="targetPoint" />
            <Array as="points">
              <mxPoint x="131" y="930" />
            </Array>
          </mxGeometry>
        </mxCell>
        <mxCell id="of3fLFiGDkSLjefyCuvY-40" value="Y" style="edgeLabel;html=1;align=center;verticalAlign=middle;resizable=0;points=[];" vertex="1" connectable="0" parent="of3fLFiGDkSLjefyCuvY-39">
          <mxGeometry x="-0.7566" relative="1" as="geometry">
            <mxPoint as="offset" />
          </mxGeometry>
        </mxCell>
        <mxCell id="of3fLFiGDkSLjefyCuvY-38" value="Δ&amp;gt;0" style="rhombus;whiteSpace=wrap;html=1;" vertex="1" parent="1">
          <mxGeometry x="80.5" y="800" width="101" height="80" as="geometry" />
        </mxCell>
        <mxCell id="of3fLFiGDkSLjefyCuvY-43" style="edgeStyle=orthogonalEdgeStyle;rounded=0;orthogonalLoop=1;jettySize=auto;html=1;" edge="1" parent="1" source="of3fLFiGDkSLjefyCuvY-42">
          <mxGeometry relative="1" as="geometry">
            <mxPoint x="493" y="930" as="targetPoint" />
          </mxGeometry>
        </mxCell>
        <mxCell id="of3fLFiGDkSLjefyCuvY-42" value="tính 2 nghiệm phân biệt x1,x2" style="rounded=0;whiteSpace=wrap;html=1;" vertex="1" parent="1">
          <mxGeometry x="303" y="900" width="120" height="60" as="geometry" />
        </mxCell>
        <mxCell id="of3fLFiGDkSLjefyCuvY-49" style="edgeStyle=orthogonalEdgeStyle;rounded=0;orthogonalLoop=1;jettySize=auto;html=1;entryX=0.5;entryY=1;entryDx=0;entryDy=0;" edge="1" parent="1" source="of3fLFiGDkSLjefyCuvY-44" target="of3fLFiGDkSLjefyCuvY-45">
          <mxGeometry relative="1" as="geometry" />
        </mxCell>
        <mxCell id="of3fLFiGDkSLjefyCuvY-44" value="xuất x1,x2" style="shape=parallelogram;perimeter=parallelogramPerimeter;whiteSpace=wrap;html=1;fixedSize=1;" vertex="1" parent="1">
          <mxGeometry x="473" y="910" width="120" height="60" as="geometry" />
        </mxCell>
        <mxCell id="of3fLFiGDkSLjefyCuvY-45" value="kết thúc" style="ellipse;whiteSpace=wrap;html=1;" vertex="1" parent="1">
          <mxGeometry x="690" y="560" width="120" height="80" as="geometry" />
        </mxCell>
      </root>
    </mxGraphModel>
  </diagram>
</mxfile>
